<svg xmlns="http://www.w3.org/2000/svg" xmlns:xlink="http://www.w3.org/1999/xlink" width="500" zoomAndPan="magnify" viewBox="0 0 375 374.999991" height="500" preserveAspectRatio="xMidYMid meet" version="1.0"><defs><clipPath id="ee50f4ffb1"><path d="M 54.796875 283.578125 L 108.71875 283.578125 L 108.71875 337.5 L 54.796875 337.5 Z M 54.796875 283.578125 " clip-rule="nonzero"/></clipPath><clipPath id="27c062782d"><path d="M 81.757812 283.578125 C 66.867188 283.578125 54.796875 295.648438 54.796875 310.539062 C 54.796875 325.429688 66.867188 337.5 81.757812 337.5 C 96.648438 337.5 108.71875 325.429688 108.71875 310.539062 C 108.71875 295.648438 96.648438 283.578125 81.757812 283.578125 Z M 81.757812 283.578125 " clip-rule="nonzero"/></clipPath><clipPath id="4911e4c380"><path d="M 54.796875 24.226562 L 108.71875 24.226562 L 108.71875 78.148438 L 54.796875 78.148438 Z M 54.796875 24.226562 " clip-rule="nonzero"/></clipPath><clipPath id="3820da9493"><path d="M 81.757812 24.226562 C 66.867188 24.226562 54.796875 36.296875 54.796875 51.1875 C 54.796875 66.078125 66.867188 78.148438 81.757812 78.148438 C 96.648438 78.148438 108.71875 66.078125 108.71875 51.1875 C 108.71875 36.296875 96.648438 24.226562 81.757812 24.226562 Z M 81.757812 24.226562 " clip-rule="nonzero"/></clipPath><clipPath id="9dbf0bb7b2"><path d="M 276.445312 283.578125 L 330.367188 283.578125 L 330.367188 337.5 L 276.445312 337.5 Z M 276.445312 283.578125 " clip-rule="nonzero"/></clipPath><clipPath id="ce2a346d23"><path d="M 303.40625 283.578125 C 288.515625 283.578125 276.445312 295.648438 276.445312 310.539062 C 276.445312 325.429688 288.515625 337.5 303.40625 337.5 C 318.296875 337.5 330.367188 325.429688 330.367188 310.539062 C 330.367188 295.648438 318.296875 283.578125 303.40625 283.578125 Z M 303.40625 283.578125 " clip-rule="nonzero"/></clipPath><clipPath id="67fde62000"><path d="M 276.445312 24.226562 L 330.367188 24.226562 L 330.367188 78.148438 L 276.445312 78.148438 Z M 276.445312 24.226562 " clip-rule="nonzero"/></clipPath><clipPath id="2597852f86"><path d="M 303.40625 24.226562 C 288.515625 24.226562 276.445312 36.296875 276.445312 51.1875 C 276.445312 66.078125 288.515625 78.148438 303.40625 78.148438 C 318.296875 78.148438 330.367188 66.078125 330.367188 51.1875 C 330.367188 36.296875 318.296875 24.226562 303.40625 24.226562 Z M 303.40625 24.226562 " clip-rule="nonzero"/></clipPath></defs><rect x="-37.5" width="450" fill="#ffffff" y="-37.499999" height="449.999989" fill-opacity="1"/><rect x="-37.5" width="450" fill="#ffffff" y="-37.499999" height="449.999989" fill-opacity="1"/><path stroke-linecap="round" transform="matrix(0, -0.75, 0.75, 0, 73.933682, 314.666785)" fill="none" stroke-linejoin="miter" d="M 9.998422 9.999883 L 345.201569 9.999883 " stroke="#00bf63" stroke-width="20" stroke-opacity="1" stroke-miterlimit="4"/><path stroke-linecap="round" transform="matrix(0, -0.75, 0.75, 0, 295.214635, 314.666785)" fill="none" stroke-linejoin="miter" d="M 9.998422 10.000279 L 345.201569 10.000279 " stroke="#00bf63" stroke-width="20" stroke-opacity="1" stroke-miterlimit="4"/><path stroke-linecap="round" transform="matrix(-0.479219, -0.576931, 0.576931, -0.479219, 296.947835, 319.462537)" fill="none" stroke-linejoin="miter" d="M 9.997954 9.99974 L 451.755774 9.998991 " stroke="#00bf63" stroke-width="20" stroke-opacity="1" stroke-miterlimit="4"/><g clip-path="url(#ee50f4ffb1)"><g clip-path="url(#27c062782d)"><path fill="#00bf63" d="M 54.796875 283.578125 L 108.71875 283.578125 L 108.71875 337.5 L 54.796875 337.5 Z M 54.796875 283.578125 " fill-opacity="1" fill-rule="nonzero"/></g></g><g clip-path="url(#4911e4c380)"><g clip-path="url(#3820da9493)"><path fill="#00bf63" d="M 54.796875 24.226562 L 108.71875 24.226562 L 108.71875 78.148438 L 54.796875 78.148438 Z M 54.796875 24.226562 " fill-opacity="1" fill-rule="nonzero"/></g></g><g clip-path="url(#9dbf0bb7b2)"><g clip-path="url(#ce2a346d23)"><path fill="#00bf63" d="M 276.445312 283.578125 L 330.367188 283.578125 L 330.367188 337.5 L 276.445312 337.5 Z M 276.445312 283.578125 " fill-opacity="1" fill-rule="nonzero"/></g></g><g clip-path="url(#67fde62000)"><g clip-path="url(#2597852f86)"><path fill="#00bf63" d="M 276.445312 24.226562 L 330.367188 24.226562 L 330.367188 78.148438 L 276.445312 78.148438 Z M 276.445312 24.226562 " fill-opacity="1" fill-rule="nonzero"/></g></g></svg>